<?xml version="1.0" encoding="UTF-8" standalone="no"?>
<!DOCTYPE svg PUBLIC "-//W3C//DTD SVG 1.1//EN" "http://www.w3.org/Graphics/SVG/1.1/DTD/svg11.dtd">
<!-- Created with Vectornator (http://vectornator.io/) -->
<svg height="100%" stroke-miterlimit="10" style="fill-rule:nonzero;clip-rule:evenodd;stroke-linecap:round;stroke-linejoin:round;" version="1.1" viewBox="0 0 283 314" width="100%" xml:space="preserve" xmlns="http://www.w3.org/2000/svg" xmlns:vectornator="http://vectornator.io" xmlns:xlink="http://www.w3.org/1999/xlink">
<defs>
<path d="M0 282.935L282.979 282.935L282.979 314L0 314L0 282.935Z" id="Fill"/>
</defs>
<g id="Page-1" vectornator:layerName="Page-1">
<g opacity="1">
<path d="M107.256 140.927C103.921 144.082 102.654 148.993 105.832 152.782C108.825 156.351 114.619 157.108 118.356 154.262C127.38 147.398 117.975 134.73 108.236 137.352C106.43 137.837 106.882 140.371 108.662 140.471C111.511 140.63 114.557 140.739 116.833 142.704C119.277 144.818 119.33 148.391 117.325 150.821C112.018 157.254 102.797 147.781 108.371 142.029C109.076 141.303 107.992 140.231 107.256 140.927" fill="#7cabff" fill-rule="evenodd" opacity="1" stroke="none"/>
<path d="M201.028 152.315C202.22 156.874 203.529 161.384 204.889 165.892C205.218 166.977 206.213 167.316 207.115 166.682C210.664 164.193 214.218 161.746 217.579 158.99C218.226 158.46 218.085 157.392 217.445 156.938C213.508 154.148 208.189 150.03 203.192 150C201.922 149.994 201.033 151.839 202.321 152.607C204.34 153.807 206.754 154.235 208.907 155.16C211.395 156.226 213.857 157.477 216.049 159.097C216.101 158.349 216.148 157.598 216.198 156.85C212.438 159.242 208.901 161.919 205.325 164.587C206.029 164.732 206.733 164.879 207.437 165.024C205.911 160.572 204.346 156.149 202.655 151.761C202.298 150.836 200.774 151.343 201.028 152.315" fill="#ff7081" fill-rule="evenodd" opacity="1" stroke="none"/>
<path d="M226.412 174.89C231.83 172.343 237.374 169.415 242.255 165.977C244.046 164.714 242.281 162.25 240.392 163.222C235.174 165.904 230.088 169.371 225.433 172.907C224.501 173.617 225.187 175.467 226.412 174.89" fill="#fbc580" fill-rule="evenodd" opacity="1" stroke="none"/>
<path d="M25.9774 192.91C24.8478 187.274 23.3776 181.424 21.2348 176.061C20.4479 174.09 17.5753 175.113 18.0533 177.101C19.367 182.588 21.4844 188.147 23.7796 193.325C24.2407 194.364 26.2334 194.186 25.9774 192.91" fill="#ff957e" fill-rule="evenodd" opacity="1" stroke="none"/>
<path d="M43.8819 139.402L43.5389 139.1C42.0309 137.767 39.5583 137.506 38.0908 139.1C36.6091 140.711 36.6639 142.924 38.0908 144.535C38.1933 144.649 38.2933 144.761 38.3934 144.877C39.7441 146.396 42.5241 146.353 43.8819 144.877C45.2326 143.408 45.5065 140.835 43.8819 139.402" fill="#241352" fill-rule="evenodd" opacity="1" stroke="none"/>
<path d="M187.002 293.19C187.002 293.19 129.925 306.421 107 283.573L115.203 229.001C117.696 213.314 116.21 183.134 128.264 172.427C130.596 170.354 132.842 169.323 132.842 169.323C141.298 165.253 156.341 163.055 170.787 163C188.334 162.933 206.394 176.155 211 193.028L192.008 237.299L187.002 293.19Z" fill="#ff7081" fill-rule="evenodd" opacity="1" stroke="none"/>
<path d="M182.335 199.783C182.335 199.783 207.935 248.749 195.226 251.356C153.404 259.934 129.132 266.969 129.132 266.969L127 283.093C127.623 285.531 211.607 283.425 221.555 272.22C228.578 264.309 237.916 246.028 218.051 206.46L212.016 193L182.335 199.783Z" fill="#ffafa7" fill-rule="evenodd" opacity="1" stroke="none"/>
<path d="M135 172.907L71.1659 197.349L69.1682 164.228L55.5018 159C55.5018 159 35.6848 212.164 60.4683 222.062C85.2519 231.962 113.177 213.67 113.177 213.67L135 172.907Z" fill="#ffafa7" fill-rule="evenodd" opacity="1" stroke="none"/>
<path d="M142 166C120.03 173.052 106.928 181.317 76 194.315L91.8821 230L119.255 221.145L142 166Z" fill="#ff7081" fill-rule="evenodd" opacity="1" stroke="none"/>
<path d="M179.006 192.407L194.978 230L231 223.337L206.732 181L178 192.407" fill="#ff7081" fill-rule="evenodd" opacity="1" stroke="none"/>
<path d="M159.435 217.734C167.16 217.328 174.79 217.644 182.509 217.74C183.184 217.75 183.143 216.848 182.509 216.776C174.902 215.916 167.048 216.26 159.435 216.878C158.861 216.926 158.849 217.766 159.435 217.734" fill="#002c68" fill-rule="evenodd" opacity="1" stroke="none"/>
<path d="M193.684 174.001C167.713 176.368 185.477 215.015 192.133 226.715C192.501 227.367 193.497 226.783 193.131 226.127C186.515 214.306 168.812 178.34 193.769 174.641C194.126 174.588 194.047 173.967 193.684 174.001" fill="#002c68" fill-rule="evenodd" opacity="1" stroke="none"/>
<path d="M121.326 196.244C118.03 209.038 115.817 222.343 115.001 235.517C114.966 236.062 115.912 236.2 115.993 235.648C117.909 222.55 119.836 209.488 121.995 196.421C122.064 196.005 121.437 195.813 121.326 196.244" fill="#002c68" fill-rule="evenodd" opacity="1" stroke="none"/>
<path d="M183.297 125C183.698 119.45 184.104 113.9 184.506 108.349C188.881 107.12 191.157 101.54 189.409 97.3554C187.664 93.1708 182.707 90.8208 178.205 91.4621C181.045 89.5339 180.829 84.9296 178.498 82.4134C176.167 79.8971 172.516 79.0811 169.082 78.949C165.649 78.8169 162.175 79.2324 158.797 78.6081C155.806 78.052 152.875 76.6863 149.856 77.0656C146.837 77.4469 143.951 80.8346 145.579 83.3977C141.225 82.7607 136.514 82.1812 132.644 84.2755C128.775 86.3699 126.833 92.3292 130.157 95.2056C127.961 96.322 127.412 99.4924 128.647 101.621C129.882 103.747 132.411 104.866 134.868 105.043C137.328 105.217 139.767 104.597 142.154 103.982" fill="#003637" fill-rule="evenodd" opacity="1" stroke="none"/>
<path d="M182.445 114.257L181.58 125.747C181.58 125.747 191.264 127.065 188.506 135.975C185.743 144.885 179.119 140.987 179.119 140.987C179.119 140.987 177.461 163.822 154.271 156.582C135.814 150.818 136.942 126.713 139.285 106.162C140.194 98.2001 147.66 92.7254 155.459 94.2575L169.401 96.9969C177.461 98.5799 183.067 106 182.445 114.257" fill="#ffafa7" fill-rule="evenodd" opacity="1" stroke="none"/>
<path d="M181 136L174.705 169.15C173.285 176.618 165.83 181.396 158.343 179.634C151.406 177.999 146.963 171.308 148.209 164.374L151.626 145.374L181 136Z" fill="#ffafa7" fill-rule="evenodd" opacity="1" stroke="none"/>
<path d="M154.978 136.089C155.015 136.076 155.084 136.575 154.41 136.92C153.711 137.248 152.589 136.533 152.301 135.359C151.927 134.228 151.983 132.859 152.044 131.453C152.118 129.958 152.195 128.433 152.274 126.833C152.666 120.279 153.219 114.983 153.52 115C153.815 115.022 153.742 120.349 153.354 126.905C153.242 128.501 153.139 130.028 153.035 131.521C152.917 132.94 152.807 134.178 153.033 135.131C153.197 136.094 153.864 136.566 154.298 136.494C154.742 136.415 154.904 136.028 154.978 136.089" fill="#241352" fill-rule="evenodd" opacity="1" stroke="none"/>
<path d="M147.005 154.015C147.113 153.888 148.247 154.578 150.243 155.356C152.221 156.137 155.134 156.936 158.433 156.996C161.737 157.057 164.683 156.368 166.698 155.659C168.729 154.956 169.895 154.309 169.995 154.44C170.079 154.534 169.06 155.402 167.029 156.306C165.02 157.211 161.921 158.062 158.409 157.996C154.9 157.933 151.846 156.967 149.879 155.989C147.895 155.01 146.92 154.105 147.005 154.015" fill="#241352" fill-rule="evenodd" opacity="1" stroke="none"/>
<path d="M152.021 140.794C152.154 140.692 152.687 141.147 153.703 141.545C154.694 141.948 156.263 142.245 157.813 141.808C159.362 141.362 160.441 140.313 160.983 139.476C161.544 138.628 161.676 137.985 161.854 138C161.988 137.998 162.156 138.71 161.713 139.78C161.294 140.823 160.11 142.206 158.164 142.77C156.208 143.315 154.337 142.801 153.308 142.169C152.242 141.529 151.909 140.862 152.021 140.794" fill="#241352" fill-rule="evenodd" opacity="1" stroke="none"/>
<path d="M182 136.794C181.986 136.628 182.566 136.546 183.209 136.151C183.53 135.947 183.809 135.657 183.91 135.251C184.013 134.838 183.895 134.453 183.572 134.35C183.306 134.247 183.053 134.333 182.994 134.43L182.059 133.949C182.935 132.149 183.718 130.905 183.948 131.006C184.174 131.107 183.777 132.518 183.024 134.373L182.091 133.89C182.483 133.226 183.342 133.075 183.963 133.327C184.418 133.476 184.819 133.93 184.927 134.359C185.055 134.796 185.001 135.218 184.87 135.567C184.615 136.279 184.009 136.697 183.543 136.85C182.568 137.157 181.996 136.917 182 136.794" fill="#241352" fill-rule="evenodd" opacity="1" stroke="none"/>
<path d="M164.007 114.698C163.908 114.44 164.936 113.834 166.234 114.22C167.535 114.598 168.162 115.69 167.964 115.862C167.771 116.066 167.019 115.512 165.997 115.228C164.986 114.914 164.083 114.982 164.007 114.698" fill="#241352" fill-rule="evenodd" opacity="1" stroke="none"/>
<path d="M143.01 110.176C142.882 109.928 144.01 109.176 145.588 109.322C147.167 109.456 148.149 110.396 147.981 110.616C147.822 110.866 146.794 110.46 145.5 110.36C144.205 110.23 143.124 110.45 143.01 110.176" fill="#241352" fill-rule="evenodd" opacity="1" stroke="none"/>
<path d="M180.968 126.379C174.485 119.934 172.58 109.197 170.821 100.144C164.818 104.602 156.558 105.698 149.636 102.956C147.462 105.56 144.91 107.833 142.089 109.678C141.286 110.203 140.334 110.714 139.422 110.432C138.334 110.097 137.85 108.826 137.59 107.698C136.762 104.086 136.733 100.22 137.968 96.7329C139.204 93.2441 141.792 90.1806 145.186 88.8423C148.811 87.4094 152.892 88.0324 156.655 89.027C162.325 90.5265 167.791 92.8295 172.848 95.8478C177.808 98.8103 182.574 102.731 184.677 108.188C186.782 113.642 186.773 124.242 181.699 127" fill="#003637" fill-rule="evenodd" opacity="1" stroke="none"/>
<path d="M165.882 123C165.594 122.982 165.416 122.294 165.48 121.466C165.546 120.637 165.832 119.982 166.118 120C166.406 120.018 166.586 120.706 166.518 121.534C166.454 122.361 166.168 123.018 165.882 123" fill="#241352" fill-rule="evenodd" opacity="1" stroke="none"/>
<path d="M146.881 121C146.593 120.982 146.415 120.294 146.481 119.466C146.545 118.637 146.831 117.982 147.117 118C147.405 118.018 147.585 118.706 147.519 119.534C147.453 120.361 147.169 121.018 146.881 121" fill="#241352" fill-rule="evenodd" opacity="1" stroke="none"/>
<path d="M54 160.531C54 160.531 56.8263 143.066 60.2047 143.254C63.5831 143.442 70.3356 143.254 70.3356 143.254C70.3356 143.254 70.9005 126.642 72.7776 129.285C74.6526 131.928 75.2429 154.278 68.0062 165L54 160.531Z" fill="#ffafa7" fill-rule="evenodd" opacity="1" stroke="none"/>
<path d="M129 267C129 267 99.4279 272.263 100.008 276.165C100.585 280.066 102.662 284 102.662 284L129 283.37L129 267Z" fill="#ffafa7" fill-rule="evenodd" opacity="1" stroke="none"/>
<path d="M162 284.691L161.771 280.515L99.3903 276.718L78.4687 221L10 224.747L33.3595 285L162 284.691Z" fill="#1d9ea0" fill-rule="evenodd" opacity="1" stroke="none"/>
<path d="M48.0076 251.274C48.1603 254.031 50.5178 256.143 53.277 255.992C56.034 255.84 58.1468 253.483 57.992 250.724C57.8414 247.967 55.4839 245.855 52.7268 246.008C49.9677 246.16 47.857 248.518 48.0076 251.274" fill="#ffffff" fill-rule="evenodd" opacity="1" stroke="none"/>
<path d="M46.0109 251.385C46.2242 255.245 49.5264 258.202 53.3849 257.989C57.2455 257.778 60.2006 254.476 59.9893 250.615C59.7781 246.755 56.4759 243.798 52.6153 244.011C48.7547 244.222 45.7975 247.524 46.0109 251.385" fill="#ffffff" fill-rule="evenodd" opacity="1" stroke="none"/>
<g opacity="1">
<use fill="#e5f2f2" fill-rule="evenodd" opacity="1" stroke="none" xlink:href="#Fill"/>
<clipPath id="ClipPath">
<use xlink:href="#Fill"/>
</clipPath>
<g clip-path="url(#ClipPath)">
<path d="M-0.000848013 286.188L267.325 282.935L282.979 290.949C282.979 290.949 77.7619 345.857-0.000848013 286.188" fill="#e5f2f2" fill-rule="evenodd" opacity="1" stroke="none"/>
</g>
</g>
<path d="M158.032 25.0571C158.032 25.0571 144.454 25.7324 144 40.1289C144 40.1289 144.228 48.0014 148.528 50.9247C152.827 53.8481 152.6 57 152.6 57L163.914 57C163.914 57 163.463 52.9505 165.273 50.7003C167.083 48.4502 171.609 43.7275 170.932 36.7547C170.252 29.7798 165.045 24.3818 158.032 25.0571" fill="#ffbc7a" fill-rule="evenodd" opacity="1" stroke="none"/>
<path d="M152.458 60.6725C156.455 60.4925 160.499 60.9185 164.471 60.6945C165.043 60.6605 165.239 59.7945 164.613 59.6685C160.752 58.8925 156.339 59.3225 152.458 59.7465C151.863 59.8105 151.832 60.7005 152.458 60.6725" fill="#6f35a5" fill-rule="evenodd" opacity="1" stroke="none"/>
<path d="M154.486 64.6887C156.141 64.5987 157.808 64.5347 159.467 64.5507C161.118 64.5667 162.81 64.8227 164.451 64.7107C165.054 64.6687 165.24 63.8407 164.6 63.6847C161.424 62.9087 157.562 63.3567 154.353 63.7787C153.804 63.8527 153.932 64.7187 154.486 64.6887" fill="#6f35a5" fill-rule="evenodd" opacity="1" stroke="none"/>
<path d="M155.435 66.2716C156.758 66.3656 158.124 66.7496 159.442 66.7216C160.094 66.7056 160.213 65.7616 159.593 65.5616C158.313 65.1476 156.762 65.2916 155.435 65.3456C154.851 65.3696 154.859 66.2296 155.435 66.2716" fill="#6f35a5" fill-rule="evenodd" opacity="1" stroke="none"/>
<path d="M156.111 56.3513C156.437 52.2774 155.025 47.7699 154.309 43.7721C153.897 43.9413 153.488 44.1084 153.077 44.2776C153.671 45.2231 154.655 47.9518 156.167 47.8545C157.73 47.7529 158.311 45.0433 158.529 43.9392L157.182 43.9392C157.484 45.1977 157.521 48.2331 159.554 47.9454C161.276 47.7022 162.436 45.2189 162.962 43.8567C162.499 43.7319 162.031 43.6071 161.563 43.4823C160.523 47.4674 160.024 52.5122 161.064 56.5269C161.252 57.2503 162.431 57.1065 162.409 56.3513C162.281 52.1293 161.674 47.9962 162.962 43.8567C163.241 42.9683 161.896 42.6531 161.563 43.4823C161.371 43.9519 160.259 46.6255 159.206 46.2807C158.94 46.194 158.59 43.8102 158.529 43.5796C158.374 42.9556 157.306 42.907 157.182 43.5796C157.029 44.3982 156.679 46.6276 155.686 45.9613C155.112 45.5764 154.605 44.2036 154.241 43.6156C153.826 42.9429 152.896 43.4188 153.009 44.1211C153.66 48.1189 153.839 52.7766 155.491 56.5163C155.634 56.8378 156.089 56.6348 156.111 56.3513" fill="#6f35a5" fill-rule="evenodd" opacity="1" stroke="none"/>
<path d="M115.625 51.9773C121.969 50.2608 128.516 48.7816 134.71 46.7046C135.205 46.5384 135.024 45.8996 134.486 46.0135C128.029 47.377 121.69 49.4091 115.353 51.1424C114.733 51.3124 114.997 52.1473 115.625 51.9773" fill="#ffbc7a" fill-rule="evenodd" opacity="1" stroke="none"/>
<path d="M123.544 33.6924C127.485 33.6184 131.586 33.8264 135.496 33.3644C136.153 33.2864 136.183 32.4464 135.496 32.4004C131.566 32.1264 127.482 32.5344 123.544 32.6524C122.822 32.6744 122.815 33.7064 123.544 33.6924" fill="#ffbc7a" fill-rule="evenodd" opacity="1" stroke="none"/>
<path d="M141.81 27.0449C137.396 23.1219 133.182 18.2265 128.153 15.122C127.365 14.6357 126.632 15.716 127.204 16.3783C131.061 20.8381 136.473 24.1516 141.01 27.8612C141.569 28.3188 142.369 27.5399 141.81 27.0449" fill="#ffbc7a" fill-rule="evenodd" opacity="1" stroke="none"/>
<path d="M151.999 21.7087C152.041 20.4043 151.1 19.15 150.511 18.0642C149.815 16.7804 149.213 15.2916 148.255 14.2172C147.77 13.6754 146.791 14.2286 147.04 14.9821C147.504 16.3866 148.46 17.634 149.218 18.8792C149.857 19.9399 150.477 21.4218 151.581 21.9659C151.773 22.0615 151.99 21.95 151.999 21.7087" fill="#ffbc7a" fill-rule="evenodd" opacity="1" stroke="none"/>
<g opacity="1">
<clipPath id="ClipPath_2">
<path d="M158.761 0.008L160.761 0.008L160.761 19.8924L158.761 19.8924L158.761 0.008Z"/>
</clipPath>
<g clip-path="url(#ClipPath_2)">
<path d="M160.532 19.2931C160.702 13.1987 160.91 6.75276 160.27 0.691495C160.174-0.205979 159.05-0.234716 158.986 0.691495C158.566 6.77707 159.014 13.2075 159.408 19.2931C159.458 20.0844 160.51 20.0999 160.532 19.2931" fill="#ffbc7a" fill-rule="evenodd" opacity="1" stroke="none"/>
</g>
</g>
<path d="M166.948 21.7489C168.366 19.5895 169.842 17.4237 170.919 15.0566C171.301 14.2216 170.243 13.5816 169.73 14.3339C168.272 16.4722 167.179 18.8711 166.062 21.2128C165.772 21.8273 166.575 22.3168 166.948 21.7489" fill="#ffbc7a" fill-rule="evenodd" opacity="1" stroke="none"/>
<path d="M173.588 25.9599C176.433 24.7672 179.112 23.2169 181.819 21.7451C184.491 20.294 187.484 19.031 189.812 17.0632C190.286 16.6601 189.781 15.8395 189.206 16.0276C186.481 16.9123 184.016 18.6507 181.536 20.0646C178.73 21.6666 175.841 23.1859 173.208 25.0648C172.797 25.3584 173.033 26.1914 173.588 25.9599" fill="#ffbc7a" fill-rule="evenodd" opacity="1" stroke="none"/>
<path d="M175.445 34.669C177.82 35.421 181.902 34.866 183.745 33.2644C184.387 32.7073 183.703 31.8895 182.94 32.0124C181.673 32.2115 180.504 32.8174 179.242 33.0844C177.986 33.3492 176.701 33.3449 175.445 33.578C174.797 33.6987 174.909 34.4974 175.445 34.669" fill="#ffbc7a" fill-rule="evenodd" opacity="1" stroke="none"/>
<path d="M177.484 45.172C185.563 46.9796 193.9 49.0459 202.165 49.9935C203.163 50.107 203.298 48.709 202.398 48.4688C194.479 46.3616 185.977 45.2688 177.842 44.0104C177.006 43.882 176.629 44.9803 177.484 45.172" fill="#ffbc7a" fill-rule="evenodd" opacity="1" stroke="none"/>
<path d="M60.2287 188.242C60.5051 186.432 60.4515 184.708 61.4801 183.111C63.5308 179.93 66.4407 180.731 69.2585 182.129C72.1298 183.555 74.8319 184.408 77.954 183.078C82.8289 180.997 85.1152 173.749 80.4653 170.34C78.9589 169.235 77.4761 171.058 77.6776 172.454C77.9583 174.404 78.9397 176.548 77.2447 178.225C74.9798 180.467 72.3227 178.585 70.062 177.579C67.6192 176.493 65.0243 176.255 62.5043 177.258C58.1673 178.988 55.0217 184.786 58.4673 188.701C58.9516 189.254 60.1108 189.005 60.2287 188.242" fill="#7e2e84" fill-rule="evenodd" opacity="1" stroke="none"/>
<path d="M103.89 243.671C109.976 244.029 116.373 244.173 122.45 243.698C124.683 243.522 124.407 241.111 122.241 241.045C116.257 240.859 109.986 241.273 104.056 241.903C102.867 242.029 102.511 243.589 103.89 243.671" fill="#7e2e84" fill-rule="evenodd" opacity="1" stroke="none"/>
<path d="M209.154 87.4117C208.344 88.9943 210.994 129.878 210.994 129.878L230.992 128.206L228.66 139L238.432 127.905L258 125.63L256.812 86L209.154 87.4117Z" fill="#db653b" fill-rule="evenodd" opacity="1" stroke="none"/>
<path d="M220 105.414L224.235 120L230.162 118.855L229.583 115.918L231.264 114.917L234.439 118.029L244.479 116.09L245.78 112.286L242.923 111.653L246.611 110.431L245.81 106.356L242.62 106.633L247 105.45L246.004 100.393L235.802 102.363C235.802 102.363 236.46 95.2969 233.448 93L231.142 93.4467C231.142 93.4467 231.92 95.6653 231.847 97.0329C231.777 98.4004 229.771 104.711 229.771 104.711L226.638 106.163L225.895 104.106L220 105.414Z" fill="#ffffff" fill-rule="evenodd" opacity="1" stroke="none"/>
<path d="M14 78L17.4065 118.685L92.2319 118.685L96.3729 133L100.742 117.302L115 116.472L108.428 80.0316L14 78Z" fill="#db653b" fill-rule="evenodd" opacity="1" stroke="none"/>
<path d="M23.5976 92.836C49.2213 91.8601 74.7541 91.9255 100.314 93.997C101.226 94.0699 101.231 92.7967 100.314 92.735C74.7837 91.0207 49.1684 90.3682 23.5976 91.7404C22.8061 91.7834 22.7955 92.8659 23.5976 92.836" fill="#ffffff" fill-rule="evenodd" opacity="1" stroke="none"/>
<path d="M25.5976 101.836C51.2199 100.86 76.7555 100.926 102.314 102.997C103.226 103.07 103.231 101.797 102.314 101.733C76.7851 100.021 51.1691 99.3683 25.5976 100.741C24.8061 100.784 24.7955 101.866 25.5976 101.836" fill="#ffffff" fill-rule="evenodd" opacity="1" stroke="none"/>
<path d="M25.6019 108.179C42.9101 108.731 60.0183 107.543 77.3095 108.997C78.227 109.075 78.2334 107.707 77.3095 107.647C60.0374 106.537 42.8952 107.247 25.6019 107.007C24.7972 106.995 24.8015 108.153 25.6019 108.179" fill="#ffffff" fill-rule="evenodd" opacity="1" stroke="none"/>
</g>
</g>
</svg>
